<?xml version="1.0" encoding="UTF-8" standalone="no"?>
<svg width="46px" height="46px" viewBox="0 0 46 46" version="1.1" xmlns="http://www.w3.org/2000/svg" xmlns:xlink="http://www.w3.org/1999/xlink">
    <g stroke="none" stroke-width="1" fill="none" fill-rule="evenodd">
        <path d="M31.64,23.205c0-0.639-0.057-1.252-0.164-1.841H23v3.481h4.844c-0.209,1.125-0.843,2.078-1.796,2.716v2.259h2.908C30.455,28.205,31.64,25.941,31.64,23.205z" fill="#4285F4"/>
        <path d="M23,32c2.43,0,4.467-0.806,5.956-2.18l-2.908-2.259c-0.806,0.54-1.837,0.859-3.048,0.859c-2.344,0-4.328-1.584-5.036-3.711h-3.007v2.332C16.38,29.983,19.305,32,23,32z" fill="#34A853"/>
        <path d="M17.964,24.709c-0.18-0.54-0.282-1.117-0.282-1.709s0.102-1.169,0.282-1.709v-2.332h-3.007C14.372,20.17,14,21.576,14,23s0.372,2.83,0.957,4.041L17.964,24.709z" fill="#FBBC05"/>
        <path d="M23,17.58c1.321,0,2.508,0.454,3.44,1.345l2.582-2.58C27.463,14.891,25.426,14,23,14c-3.695,0-6.62,2.017-8.043,4.959l3.007,2.332C18.672,19.163,20.656,17.58,23,17.58z" fill="#EA4335"/>
    </g>
</svg>
